<mxfile host="app.diagrams.net" modified="2023-10-10T15:15:17.344Z" agent="Mozilla/5.0 (X11; Linux x86_64; rv:109.0) Gecko/20100101 Firefox/114.0" etag="W4Rvjm_Nqsd6ZET8Gsg8" version="22.0.4" type="github">
  <diagram name="Página-1" id="vdvfdaJz4pb5WIpKatFK">
    <mxGraphModel dx="1658" dy="908" grid="1" gridSize="10" guides="1" tooltips="1" connect="1" arrows="1" fold="1" page="1" pageScale="1" pageWidth="1169" pageHeight="827" math="0" shadow="0">
      <root>
        <mxCell id="0" />
        <mxCell id="1" parent="0" />
        <mxCell id="siltOmS0hKmyE8gS_ijN-1" value="&lt;div&gt;Empleados&lt;/div&gt;" style="rounded=0;whiteSpace=wrap;html=1;fillColor=#dae8fc;strokeColor=#6c8ebf;" vertex="1" parent="1">
          <mxGeometry x="510" y="90" width="120" height="60" as="geometry" />
        </mxCell>
        <mxCell id="siltOmS0hKmyE8gS_ijN-3" style="rounded=0;orthogonalLoop=1;jettySize=auto;html=1;entryX=0.5;entryY=1;entryDx=0;entryDy=0;endArrow=none;endFill=0;" edge="1" parent="1" source="siltOmS0hKmyE8gS_ijN-4" target="siltOmS0hKmyE8gS_ijN-1">
          <mxGeometry relative="1" as="geometry" />
        </mxCell>
        <mxCell id="siltOmS0hKmyE8gS_ijN-2" value="" style="triangle;whiteSpace=wrap;html=1;rotation=90;fillColor=#fff2cc;strokeColor=#d6b656;" vertex="1" parent="1">
          <mxGeometry x="540" y="190" width="60" height="80" as="geometry" />
        </mxCell>
        <mxCell id="siltOmS0hKmyE8gS_ijN-5" value="" style="rounded=0;orthogonalLoop=1;jettySize=auto;html=1;entryX=0.5;entryY=1;entryDx=0;entryDy=0;endArrow=none;endFill=0;" edge="1" parent="1" source="siltOmS0hKmyE8gS_ijN-2" target="siltOmS0hKmyE8gS_ijN-4">
          <mxGeometry relative="1" as="geometry">
            <mxPoint x="570" y="200" as="sourcePoint" />
            <mxPoint x="570" y="130" as="targetPoint" />
          </mxGeometry>
        </mxCell>
        <mxCell id="siltOmS0hKmyE8gS_ijN-4" value="" style="ellipse;whiteSpace=wrap;html=1;aspect=fixed;fillColor=#fff2cc;strokeColor=#d6b656;" vertex="1" parent="1">
          <mxGeometry x="560" y="170" width="20" height="20" as="geometry" />
        </mxCell>
        <mxCell id="siltOmS0hKmyE8gS_ijN-13" style="rounded=0;orthogonalLoop=1;jettySize=auto;html=1;exitX=1;exitY=0;exitDx=0;exitDy=0;entryX=0.5;entryY=1;entryDx=0;entryDy=0;endArrow=none;endFill=0;" edge="1" parent="1" source="siltOmS0hKmyE8gS_ijN-7" target="siltOmS0hKmyE8gS_ijN-2">
          <mxGeometry relative="1" as="geometry" />
        </mxCell>
        <mxCell id="siltOmS0hKmyE8gS_ijN-7" value="Profesor" style="rounded=0;whiteSpace=wrap;html=1;fillColor=#dae8fc;strokeColor=#6c8ebf;" vertex="1" parent="1">
          <mxGeometry x="290" y="310" width="120" height="60" as="geometry" />
        </mxCell>
        <mxCell id="siltOmS0hKmyE8gS_ijN-14" style="rounded=0;orthogonalLoop=1;jettySize=auto;html=1;exitX=0.5;exitY=0;exitDx=0;exitDy=0;endArrow=none;endFill=0;" edge="1" parent="1" source="siltOmS0hKmyE8gS_ijN-8" target="siltOmS0hKmyE8gS_ijN-2">
          <mxGeometry relative="1" as="geometry" />
        </mxCell>
        <mxCell id="siltOmS0hKmyE8gS_ijN-8" value="Administración" style="rounded=0;whiteSpace=wrap;html=1;fillColor=#dae8fc;strokeColor=#6c8ebf;" vertex="1" parent="1">
          <mxGeometry x="430" y="414" width="120" height="60" as="geometry" />
        </mxCell>
        <mxCell id="siltOmS0hKmyE8gS_ijN-15" style="rounded=0;orthogonalLoop=1;jettySize=auto;html=1;exitX=0.5;exitY=0;exitDx=0;exitDy=0;endArrow=none;endFill=0;" edge="1" parent="1" source="siltOmS0hKmyE8gS_ijN-9" target="siltOmS0hKmyE8gS_ijN-2">
          <mxGeometry relative="1" as="geometry" />
        </mxCell>
        <mxCell id="siltOmS0hKmyE8gS_ijN-9" value="personal de limpieza" style="rounded=0;whiteSpace=wrap;html=1;fillColor=#dae8fc;strokeColor=#6c8ebf;" vertex="1" parent="1">
          <mxGeometry x="580" y="414" width="120" height="60" as="geometry" />
        </mxCell>
        <mxCell id="siltOmS0hKmyE8gS_ijN-16" style="rounded=0;orthogonalLoop=1;jettySize=auto;html=1;exitX=0;exitY=0;exitDx=0;exitDy=0;entryX=0.5;entryY=0;entryDx=0;entryDy=0;endArrow=none;endFill=0;" edge="1" parent="1" source="siltOmS0hKmyE8gS_ijN-10" target="siltOmS0hKmyE8gS_ijN-2">
          <mxGeometry relative="1" as="geometry" />
        </mxCell>
        <mxCell id="siltOmS0hKmyE8gS_ijN-10" value="mantenimiento" style="rounded=0;whiteSpace=wrap;html=1;fillColor=#dae8fc;strokeColor=#6c8ebf;" vertex="1" parent="1">
          <mxGeometry x="710" y="310" width="120" height="60" as="geometry" />
        </mxCell>
        <mxCell id="siltOmS0hKmyE8gS_ijN-18" style="rounded=0;orthogonalLoop=1;jettySize=auto;html=1;exitX=1;exitY=0.5;exitDx=0;exitDy=0;entryX=0;entryY=0.75;entryDx=0;entryDy=0;endArrow=none;endFill=0;" edge="1" parent="1" source="siltOmS0hKmyE8gS_ijN-17" target="siltOmS0hKmyE8gS_ijN-2">
          <mxGeometry relative="1" as="geometry" />
        </mxCell>
        <mxCell id="siltOmS0hKmyE8gS_ijN-17" value="Tipo" style="ellipse;whiteSpace=wrap;html=1;fillColor=#f5f5f5;strokeColor=#666666;fontColor=#333333;" vertex="1" parent="1">
          <mxGeometry x="410" y="180" width="70" height="40" as="geometry" />
        </mxCell>
        <mxCell id="siltOmS0hKmyE8gS_ijN-20" style="rounded=0;orthogonalLoop=1;jettySize=auto;html=1;exitX=1;exitY=1;exitDx=0;exitDy=0;entryX=0;entryY=0;entryDx=0;entryDy=0;endArrow=none;endFill=0;" edge="1" parent="1" source="siltOmS0hKmyE8gS_ijN-19" target="siltOmS0hKmyE8gS_ijN-1">
          <mxGeometry relative="1" as="geometry" />
        </mxCell>
        <mxCell id="siltOmS0hKmyE8gS_ijN-19" value="ID" style="ellipse;whiteSpace=wrap;html=1;fillColor=#f8cecc;strokeColor=#b85450;" vertex="1" parent="1">
          <mxGeometry x="400" y="30" width="70" height="40" as="geometry" />
        </mxCell>
        <mxCell id="siltOmS0hKmyE8gS_ijN-21" value="" style="endArrow=none;html=1;rounded=0;" edge="1" parent="1">
          <mxGeometry width="50" height="50" relative="1" as="geometry">
            <mxPoint x="470" y="500" as="sourcePoint" />
            <mxPoint x="520" y="450" as="targetPoint" />
          </mxGeometry>
        </mxCell>
        <mxCell id="siltOmS0hKmyE8gS_ijN-22" value="" style="endArrow=none;html=1;rounded=0;" edge="1" parent="1">
          <mxGeometry width="50" height="50" relative="1" as="geometry">
            <mxPoint x="470" y="500" as="sourcePoint" />
            <mxPoint x="520" y="450" as="targetPoint" />
          </mxGeometry>
        </mxCell>
        <mxCell id="siltOmS0hKmyE8gS_ijN-23" value="" style="endArrow=none;html=1;rounded=0;" edge="1" parent="1">
          <mxGeometry width="50" height="50" relative="1" as="geometry">
            <mxPoint x="470" y="500" as="sourcePoint" />
            <mxPoint x="520" y="450" as="targetPoint" />
          </mxGeometry>
        </mxCell>
        <mxCell id="siltOmS0hKmyE8gS_ijN-24" value="" style="endArrow=none;html=1;rounded=0;" edge="1" parent="1">
          <mxGeometry width="50" height="50" relative="1" as="geometry">
            <mxPoint x="470" y="500" as="sourcePoint" />
            <mxPoint x="520" y="450" as="targetPoint" />
          </mxGeometry>
        </mxCell>
        <mxCell id="siltOmS0hKmyE8gS_ijN-25" value="" style="endArrow=none;html=1;rounded=0;edgeStyle=orthogonalEdgeStyle;curved=1;" edge="1" parent="1">
          <mxGeometry width="50" height="50" relative="1" as="geometry">
            <mxPoint x="355" y="230" as="sourcePoint" />
            <mxPoint x="785" y="230" as="targetPoint" />
            <Array as="points">
              <mxPoint x="355" y="280" />
              <mxPoint x="785" y="280" />
            </Array>
          </mxGeometry>
        </mxCell>
      </root>
    </mxGraphModel>
  </diagram>
</mxfile>
